<?xml version="1.0" encoding="utf-8"?>
<!-- Generator: Adobe Illustrator 16.0.0, SVG Export Plug-In . SVG Version: 6.00 Build 0)  -->
<!DOCTYPE svg PUBLIC "-//W3C//DTD SVG 1.1//EN" "http://www.w3.org/Graphics/SVG/1.1/DTD/svg11.dtd">
<svg version="1.1" xmlns="http://www.w3.org/2000/svg" xmlns:xlink="http://www.w3.org/1999/xlink" x="0px" y="0px" width="100px"
	 height="100px" viewBox="0 0 100 100" enable-background="new 0 0 100 100" xml:space="preserve">
<g id="Layer_2">
	<rect fill="#2AD33E" width="100" height="100"/>
</g>
<g id="Layer_1">
	<g>
		<rect x="-4.423" y="7.706" fill="none" width="100.001" height="99.999"/>
		<path d="M21.678,29.544c0-1.846,0.598-3.35,1.795-4.512c1.194-1.163,2.647-1.743,4.357-1.743c1.641,0,3.092,0.598,4.357,1.794
			c1.265,1.195,1.897,2.682,1.897,4.46c0,1.846-0.615,3.366-1.846,4.563c-1.23,1.195-2.701,1.794-4.409,1.794
			c-1.71,0-3.163-0.599-4.357-1.794C22.275,32.911,21.678,31.39,21.678,29.544z M67.205,29.544c0-1.846,0.58-3.35,1.743-4.512
			c1.161-1.163,2.631-1.743,4.409-1.743c1.641,0,3.092,0.598,4.357,1.794c1.265,1.195,1.897,2.682,1.897,4.46
			c0,1.846-0.615,3.366-1.846,4.563c-1.23,1.195-2.701,1.794-4.409,1.794c-1.778,0-3.248-0.599-4.409-1.794
			C67.785,32.911,67.205,31.39,67.205,29.544z"/>
		<path d="M4.246,53.129c6.495,7.039,13.689,12.184,21.584,15.432c7.896,3.246,16.048,4.871,24.456,4.871
			c4.102,0,8.306-0.428,12.612-1.283s8.476-2.102,12.51-3.742c4.033-1.641,7.844-3.709,11.434-6.203
			c3.588-2.496,6.75-5.383,9.484-8.664l2.051,1.742c-5.947,8.066-13.109,14.184-21.482,18.355
			c-8.374,4.168-17.244,6.254-26.608,6.254c-8.818,0-17.296-1.965-25.43-5.896C16.721,70.062,9.101,63.654,1.99,54.77L4.246,53.129z
			"/>
	</g>
</g>
<g id="Layer_3" display="none">
	<rect display="inline" fill="#D85A23" width="100" height="100"/>
</g>
<g id="Layer_4" display="none">
	<g display="inline">
		<rect fill="none" width="100" height="100"/>
	</g>
	<g display="inline">
	</g>
	<g display="inline">
		<path d="M16.673,37.657V23.799h15.039v13.857H16.673z M49.759,37.657V23.799h15.146v13.857H49.759z"/>
		<path d="M91.976,86.211L15.276,64.297V50.333l76.699,22.128V86.211z"/>
	</g>
</g>
</svg>
